<svg xmlns="http://www.w3.org/2000/svg" xmlns:xlink="http://www.w3.org/1999/xlink" xmlns:xodm="http://www.corel.com/coreldraw/odm/2003" xml:space="preserve" version="1.1" style="shape-rendering:geometricPrecision;text-rendering:geometricPrecision;image-rendering:optimizeQuality;" viewBox="0 0 60000 75000" x="0px" y="0px" fill-rule="evenodd" clip-rule="evenodd"><defs><style type="text/css">
   
    .fil0 {fill:black;fill-rule:nonzero}
   
  </style></defs><g><path class="fil0" d="M4017.54 59872.94c-220.05,0 -398.44,-178.39 -398.44,-398.44 0,-220.05 178.39,-398.44 398.44,-398.44l43418.36 -1.16c2321.89,-0.55 4408.66,-924.52 5916.33,-2418.69 1511.94,-1498.4 2441.6,-3571.45 2441.6,-5862.36 0,-2286.04 -926.58,-4355.65 -2424.63,-5853.7 -1498.06,-1498.06 -3567.67,-2424.63 -5853.7,-2424.63 -29.11,0 -57.47,-3.14 -84.81,-9.04 -24.1,4.55 -48.96,6.96 -74.38,6.96l-34914.59 -3.42 0 1.56c-578.03,0 -1101.36,-234.33 -1480.18,-613.16 -378.83,-378.82 -613.16,-902.17 -613.16,-1480.18 0,-578.03 234.33,-1101.36 613.16,-1480.18 378.82,-378.83 902.15,-613.16 1480.18,-613.16l0 1.56 34994.18 -12.36c2321.89,-0.55 4408.66,-924.52 5916.33,-2418.69 1511.94,-1498.4 2441.6,-3571.45 2441.6,-5862.36 0,-2286.04 -926.58,-4355.65 -2424.63,-5853.7 -1498.06,-1498.06 -3567.67,-2424.63 -5853.7,-2424.63 -29.11,0 -57.47,-3.14 -84.81,-9.04 -24.1,4.55 -48.96,6.96 -74.38,6.96l-34702.92 -1.93c-665.61,-1.12 -1225.57,-221.22 -1626.72,-578.2 -431.74,-384.2 -678.29,-921.41 -678.29,-1515.52 0,-594.12 246.56,-1131.34 678.31,-1515.51 401.18,-356.96 961.13,-576.99 1626.7,-577.98l34702.92 -1.71c25.42,0 50.28,2.4 74.38,6.96 27.33,-5.91 55.7,-9.04 84.81,-9.04 2286.03,0 4355.65,-926.58 5853.7,-2424.63 1498.05,-1498.05 2424.63,-3567.67 2424.63,-5853.7 0,-2293.54 -931.48,-4376.43 -2446.03,-5883.04 -1507.67,-1499.76 -3592.67,-2429.91 -5911.89,-2430.46l-43418.36 -1.16c-220.05,0 -398.44,-178.39 -398.44,-398.44 0,-220.05 178.39,-398.44 398.44,-398.44l43418.36 1.16c2539.89,0.6 4823.26,1019.25 6474.39,2661.72 1661.61,1652.9 2683.53,3936.15 2683.53,6448.66 0,2506.86 -1016.15,4776.45 -2659.01,6419.32 -1642.87,1642.86 -3912.46,2659.01 -6419.32,2659.01 -28.2,0 -55.72,-2.93 -82.27,-8.49 -24.89,4.88 -50.6,7.45 -76.92,7.45l-34702.92 1.71c-456.8,0.68 -833.11,144.57 -1095.44,377.98 -260.7,231.96 -409.57,557.58 -409.57,918.63 0,361.05 148.87,686.66 409.55,918.64 262.35,233.47 638.68,377.43 1095.46,378.2l34702.92 1.93c26.32,0 52.03,2.57 76.92,7.45 26.55,-5.56 54.07,-8.49 82.27,-8.49 2506.86,0 4776.45,1016.14 6419.32,2659.01 1642.85,1642.86 2659.01,3912.45 2659.01,6419.32 0,2510.66 -1020.09,4783.82 -2679.1,6427.98 -1651.83,1637.04 -3937.06,2649.35 -6478.83,2649.95l-34994.18 12.36 0 1.56c-357.19,0 -680.54,144.76 -914.56,378.78 -234.02,234.02 -378.78,557.37 -378.78,914.56 0,357.18 144.76,680.54 378.78,914.56 234.02,234.02 557.37,378.78 914.56,378.78l0 1.56 34914.59 3.42c26.32,0 52.03,2.57 76.92,7.45 26.55,-5.56 54.07,-8.49 82.27,-8.49 2506.86,0 4776.45,1016.14 6419.32,2659.01 1642.85,1642.86 2659.01,3912.45 2659.01,6419.32 0,2510.66 -1020.09,4783.82 -2679.1,6427.98 -1651.83,1637.04 -3937.06,2649.35 -6478.83,2649.95l-43418.36 1.16zm6637.44 -57165.06c-137.52,0 -249.02,-111.5 -249.02,-249.02 0,-137.52 111.5,-249.02 249.02,-249.02l6852.71 0.18c137.52,0 249.02,111.5 249.02,249.02 0,137.52 -111.5,249.02 -249.02,249.02l-6852.71 -0.18zm-6637.44 50183.99c-220.05,0 -398.44,-178.39 -398.44,-398.44 0,-220.05 178.39,-398.44 398.44,-398.44l43418.36 -3.12c395.77,-1.21 739.43,-146.01 983.84,-379.88 243.17,-232.67 389.1,-557.47 389.1,-918.14 0,-359.68 -146.5,-684.52 -390.61,-918.16 -244.47,-233.97 -587.66,-378.91 -982.33,-380.28l-34987.56 -1.97 0 1.56 -2.91 0c-2507.94,0 -4777.54,-1015.6 -6420.64,-2657.64 -1643.06,-1641.98 -2659.03,-3910.45 -2659.84,-6416.22l-1.56 0 0 -2.9c0,-2506.87 1016.14,-4776.45 2659.01,-6419.32 1642.87,-1642.87 3912.45,-2659.01 6419.32,-2659.01l0 1.56 34994.18 -10.4c395.77,-1.21 739.43,-146.01 983.84,-379.88 243.17,-232.67 389.1,-557.47 389.1,-918.14 0,-359.68 -146.5,-684.52 -390.61,-918.16 -244.47,-233.97 -587.66,-378.91 -982.33,-380.28l-34987.56 -2.19 0 1.56 -2.48 0c-2508.11,0 -4777.87,-1015.68 -6421.07,-2657.84 -1643.14,-1642.11 -2659.14,-3910.75 -2659.84,-6416.67l-1.56 0 0 -5.38 1.56 0c0.81,-2505.78 1016.79,-4774.24 2659.84,-6416.22 1642.15,-1641.08 3911.67,-2656.09 6420.64,-2656.08l0 -1.56 2.91 0 0 1.56 34987.56 -1.97c394.67,-1.37 737.85,-146.3 982.33,-380.28 244.11,-233.64 390.61,-558.48 390.61,-918.16 0,-360.67 -145.93,-685.47 -389.1,-918.14 -244.41,-233.87 -588.07,-378.67 -983.84,-379.88l-43418.36 -3.12c-220.05,0 -398.44,-178.39 -398.44,-398.44 0,-220.05 178.39,-398.44 398.44,-398.44l43418.36 3.12c610.32,1.88 1146.63,231.25 1533.84,601.76 399.42,382.17 639.1,910.6 639.1,1493.14 0,583.51 -239.1,1111.84 -637.49,1493.16 -387.17,370.54 -924.01,600.04 -1535.45,602.16l-34987.56 1.97 0 1.56 -2.91 0 0 -1.56c-2288.21,0 -4358.97,926.63 -5858.14,2424.82 -1498.26,1497.29 -2424.72,3565.79 -2425.46,5850.6l1.56 0 0 5.38 -1.56 0c0.63,2284.97 927.1,4353.63 2425.46,5851.05 1498.3,1497.35 3569.14,2423.46 5858.57,2423.46l2.48 0 0 1.56 34987.56 2.19c611.44,2.12 1148.28,231.62 1535.45,602.16 398.39,381.32 637.49,909.65 637.49,1493.16 0,582.54 -239.68,1110.97 -639.1,1493.14 -387.21,370.51 -923.52,599.88 -1533.84,601.76l-34994.18 10.4 0 1.56c-2286.04,0 -4355.64,926.57 -5853.7,2424.63 -1498.06,1498.06 -2424.63,3567.66 -2424.63,5853.7l0 2.9 -1.56 0c0.74,2284.81 927.19,4353.31 2425.46,5850.6 1498.2,1497.22 3568.87,2423.26 5858.14,2423.26l2.91 0 0 1.56 34987.56 1.97c611.44,2.12 1148.28,231.62 1535.45,602.16 398.39,381.32 637.49,909.65 637.49,1493.16 0,582.54 -239.68,1110.97 -639.1,1493.14 -387.21,370.51 -923.52,599.88 -1533.84,601.76l-43418.36 3.12z"/></g><text x="0" y="60015" fill="#000000" font-size="5px" font-weight="bold" font-family="'Helvetica Neue', Helvetica, Arial-Unicode, Arial, Sans-serif">Created by Olena Panasovska</text><text x="0" y="60020" fill="#000000" font-size="5px" font-weight="bold" font-family="'Helvetica Neue', Helvetica, Arial-Unicode, Arial, Sans-serif">from the Noun Project</text></svg>