<svg xmlns="http://www.w3.org/2000/svg" viewBox="0 0 620.41 620.25"><defs><style>.cls-1{fill:#A7999A;}</style></defs><g id="Layer_2" data-name="Layer 2"><g id="Hipster_Backgrounds" data-name="Hipster Backgrounds"><rect class="cls-1" x="-61.53" y="156.83" width="448.47" height="11.66" transform="translate(-67.36 162.74) rotate(-45.01)"></rect><rect class="cls-1" x="-40.46" y="177.9" width="448.47" height="11.66" transform="translate(-76.09 183.82) rotate(-45.01)"></rect><rect class="cls-1" x="-19.39" y="198.96" width="448.47" height="11.66" transform="translate(-84.81 204.9) rotate(-45.01)"></rect><rect class="cls-1" x="1.68" y="220.03" width="448.47" height="11.66" transform="translate(-93.54 225.98) rotate(-45.01)"></rect><rect class="cls-1" x="22.75" y="241.09" width="448.47" height="11.66" transform="translate(-102.26 247.05) rotate(-45.01)"></rect><rect class="cls-1" x="43.83" y="262.16" width="448.47" height="11.66" transform="translate(-110.98 268.13) rotate(-45.01)"></rect><rect class="cls-1" x="64.9" y="283.23" width="448.47" height="11.66" transform="translate(-119.71 289.21) rotate(-45.01)"></rect><rect class="cls-1" x="85.97" y="304.29" width="448.47" height="11.66" transform="translate(-128.43 310.28) rotate(-45.01)"></rect><rect class="cls-1" x="107.04" y="325.36" width="448.47" height="11.66" transform="translate(-137.16 331.36) rotate(-45.01)"></rect><rect class="cls-1" x="128.11" y="346.43" width="448.47" height="11.66" transform="translate(-145.88 352.44) rotate(-45.01)"></rect><rect class="cls-1" x="149.18" y="367.49" width="448.47" height="11.66" transform="translate(-154.61 373.52) rotate(-45.01)"></rect><rect class="cls-1" x="170.26" y="388.56" width="448.47" height="11.66" transform="translate(-163.33 394.59) rotate(-45.01)"></rect><rect class="cls-1" x="191.33" y="409.62" width="448.47" height="11.66" transform="translate(-172.05 415.67) rotate(-45.01)"></rect><rect class="cls-1" x="212.4" y="430.69" width="448.47" height="11.66" transform="translate(-180.78 436.75) rotate(-45.01)"></rect><rect class="cls-1" x="233.47" y="451.76" width="448.47" height="11.66" transform="translate(-189.5 457.82) rotate(-45.01)"></rect></g></g></svg>