<svg width="100%" height="100%" viewBox="0 0 113 46" fill="none" xmlns="http://www.w3.org/2000/svg"><path d="M30.3289 10.269L30.3408 10.2682C32.7937 6.14703 37.3094 3.38086 42.4778 3.38086C47.5787 3.38086 52.0463 6.07354 54.5172 10.105H54.5275C55.7677 12.1298 58.0021 13.4879 60.5619 13.4879C62.8317 13.4879 64.8448 12.4203 66.1365 10.7694H66.1445L66.1468 10.7713C68.1397 8.20101 71.2676 6.54441 74.7853 6.54441C78.3709 6.54441 81.5528 8.26465 83.5396 10.9172V10.9164L83.5499 10.9172C84.929 12.7852 87.1497 14.0019 89.6599 14.0019C91.8584 14.0019 93.8314 13.0689 95.2166 11.5839L95.2265 11.5847L95.2288 11.5866C96.8311 9.8004 99.1665 8.6734 101.767 8.6734C106.603 8.6734 110.523 12.5662 110.523 17.3685C110.523 22.172 106.603 26.0644 101.767 26.0644C99.1669 26.0644 96.8314 24.9386 95.2288 23.1517L95.2265 23.1535H95.2166C93.831 21.6708 91.858 20.7363 89.6599 20.7363C87.1497 20.7363 84.9294 21.9531 83.5499 23.8218H83.5396C81.5528 26.4751 78.3709 28.1938 74.7853 28.1938C71.2676 28.1938 68.1397 26.5361 66.1468 23.968L66.1445 23.9688L66.1365 23.9699C64.8444 22.3171 62.8317 21.2507 60.5619 21.2507C58.0021 21.2507 55.7681 22.608 54.5275 24.6325L54.5172 24.634C52.0463 28.6643 47.5787 31.3558 42.4778 31.3558C37.3094 31.3558 32.7937 28.5912 30.3408 24.47L30.3289 24.4688C29.0387 22.3804 26.7235 20.9833 24.0752 20.9833C21.9568 20.9833 20.0532 21.8803 18.7134 23.3043L18.7119 23.3036L18.71 23.3024C17.113 25.0022 14.8375 26.0644 12.3128 26.0644C7.47475 26.0644 3.5542 22.172 3.5542 17.3685C3.5542 12.5662 7.47475 8.6734 12.3128 8.6734C14.8371 8.6734 17.113 9.73714 18.71 11.4354L18.7119 11.4331H18.7134C20.0532 12.8586 21.9568 13.7546 24.0752 13.7546C26.7235 13.7546 29.0387 12.3567 30.3289 10.269Z" fill="#3A3A41"/></svg>