<svg width="65" height="26" viewBox="0 0 65 26" fill="none" xmlns="http://www.w3.org/2000/svg">
<path d="M64.95 13C64.95 14.7767 64.05 16.4745 62.4116 18.0239C60.7732 19.5734 58.3996 20.9711 55.4624 22.146C49.5883 24.4956 41.4699 25.95 32.5 25.95C23.5301 25.95 15.4117 24.4956 9.5376 22.146C6.60041 20.9711 4.22683 19.5734 2.58837 18.0239C0.950005 16.4745 0.05 14.7767 0.05 13C0.05 11.2233 0.950005 9.52555 2.58837 7.97614C4.22683 6.42663 6.60041 5.02891 9.5376 3.85404C15.4117 1.5044 23.5301 0.05 32.5 0.05C41.4699 0.05 49.5883 1.5044 55.4624 3.85404C58.3996 5.02891 60.7732 6.42663 62.4116 7.97614C64.05 9.52555 64.95 11.2233 64.95 13Z" stroke="black" stroke-width="0.1"/>
</svg>
