<?xml version="1.0" standalone="no"?>
<svg viewBox="0 0 200 200" xmlns="http://www.w3.org/2000/svg">
  <path fill="#9896A4" d="M40.9,-55.7C55.8,-54.2,72.5,-47.4,76.5,-35.8C80.4,-24.1,71.7,-7.5,61.9,3.6C52.1,14.8,41.2,20.5,32.6,25.3C23.9,30.1,17.5,34,8.4,43.3C-0.6,52.6,-12.4,67.5,-18.2,64.6C-24,61.7,-23.8,41,-34.7,29.5C-45.7,17.9,-67.8,15.4,-75.1,6.9C-82.3,-1.6,-74.8,-16.2,-62.1,-21.9C-49.4,-27.5,-31.5,-24.4,-20.3,-27.6C-9.1,-30.8,-4.6,-40.4,4.2,-47C13,-53.6,26.1,-57.2,40.9,-55.7Z" transform="translate(100 100)" />
</svg>
