<?xml version="1.0" encoding="utf-8"?>
<!-- Generator: Adobe Illustrator 26.0.1, SVG Export Plug-In . SVG Version: 6.00 Build 0)  -->
<svg version="1.1" id="Layer_1" xmlns="http://www.w3.org/2000/svg" xmlns:xlink="http://www.w3.org/1999/xlink" x="0px" y="0px"
	 viewBox="0 0 340 340" style="enable-background:new 0 0 340 340;" xml:space="preserve">
<style type="text/css">
	.st0{fill:#FFFFFF; stroke:green; stroke-width:20; stroke-linejoin:round; stroke-linecap:round;}
	.st1{fill:#008080; stroke:green; stroke-width:2; stroke-linejoin:round; stroke-linecap:round;}
</style>
<g id="Layer_2_00000160170190244277654070000009317370846982008222_">
	<g id="Layer_1-2">
		<circle class="st0" cx="170" cy="170" r="170"/>
		<path class="st1" d="M61.8,193.4c0.9,1.5,2.8,2,4.3,1.1c1.1-0.7,1.7-2,1.5-3.3C59.7,148.8,79,106,116,84c1.3-0.8,2.7-1.6,4.1-2.3
			l-10,24.4l5.9,2.4l14.5-35.2L94.2,61.4l-2,6l25.5,8.4c-1.7,0.9-3.3,1.8-5,2.8C73.4,102,53,147.4,61.4,192.3
			C61.5,192.7,61.6,193,61.8,193.4z"/>
		<path class="st1" d="M205.6,76.6c21.3,8.4,39.3,23.6,51,43.3c10.6,17.8,15.5,38.4,14.1,59.1l-15.4-21.4l-5.1,3.7l22.2,30.9
			l29.2-24.4l-4.1-4.9L277,180.1c1.7-22.2-3.6-44.4-15-63.5c-12.4-20.9-31.5-37.1-54.2-46c-1.6-0.6-3.5,0.2-4.1,1.8
			S203.9,75.9,205.6,76.6L205.6,76.6z"/>
		<path class="st1" d="M233.1,251.6c-3.9,3.2-8,6.1-12.4,8.6c-33.7,20.1-76,19.1-108.8-2.6l26.2-2.8l-0.7-6.3l-37.8,4.1l6.8,37.5
			l6.2-1.1l-4.8-26.4c39.7,26.6,92.2,24.2,129.3-6.1c1.4-1,1.7-3,0.7-4.4c-1-1.4-3-1.7-4.4-0.7C233.3,251.5,233.3,251.6,233.1,251.6
			L233.1,251.6z"/>
		<path class="st1" d="M210.2,191.2c-8.5-5.3-18-7.3-26-8.5c-1.7-0.2-3.5,0.3-4.8,1.4c-7.9,5.7-15.2,5.8-23,0.1
			c-1.6-1.3-3.7-1.8-5.6-1.4c-8.8,1.4-15.3,3.2-21.2,6.1c-3.6,1.6-6.9,4-9.5,7c-4.5,5.4-4.3,11.8,0.5,17c2.9,3,6.3,5.3,10.1,6.9
			c10.3,4.5,22.1,6.7,37.1,6.8h1.5c8.7,0,17.3-1.1,25.7-3.3c6.8-1.8,14.5-4.3,20.3-10.5c4.7-5,4.9-11.3,0.6-16.8
			C214.2,194.1,212.3,192.5,210.2,191.2z M183,188.5c0.1-0.1,0.2-0.1,0.4-0.1c7.5,1.1,16.2,2.9,23.9,7.7c1.5,0.9,2.9,2.1,4.1,3.5
			c2.6,3.3,2.5,6.3-0.3,9.2c-4.8,5.1-11.3,7.2-17.6,8.9c-8.4,2.2-17,3.2-25.7,3.1c-14.2-0.1-25.2-2.1-34.9-6.4
			c-3.1-1.2-5.9-3.1-8.2-5.5c-2.9-3.1-2.9-6.2-0.3-9.4c2.1-2.3,4.7-4.2,7.6-5.4c5.4-2.6,11.5-4.4,19.8-5.6c0.1,0,0.2,0,0.2,0
			c0.3,0,0.7,0.1,0.9,0.3c9.9,7.2,20,7.2,29.9-0.1L183,188.5z"/>
		<path class="st1" d="M265.7,203.8c-6-1.5-12.3-0.6-17.6,2.5l0,0c-11,6.5-14.7,20.8-8.1,31.8c3.1,5.3,8.3,9.2,14.3,10.7
			c1.9,0.5,3.8,0.7,5.8,0.7c12.8,0,23.2-10.4,23.2-23.2C283.2,215.7,276,206.4,265.7,203.8L265.7,203.8z M276.7,230.6
			c-2.4,9.2-11.8,14.8-21,12.4c-9.2-2.4-14.8-11.8-12.4-21c2.4-9.2,11.8-14.8,21-12.4c4.4,1.1,8.2,4,10.5,7.9
			C277.2,221.4,277.9,226.1,276.7,230.6z"/>
		<path class="st1" d="M159.8,89.6c1.9,0.5,3.8,0.7,5.8,0.7c12.8,0,23.2-10.4,23.2-23.3c0-12.8-10.4-23.2-23.3-23.2
			c-4.2,0-8.2,1.1-11.8,3.3l0,0c-11,6.5-14.7,20.8-8.1,31.8C148.6,84.3,153.8,88.1,159.8,89.6L159.8,89.6z M156.7,52.3
			c8.2-4.9,18.8-2.2,23.7,6s2.2,18.8-6,23.7c-8.2,4.9-18.8,2.2-23.7-6c0,0,0,0,0,0C145.8,67.7,148.5,57.1,156.7,52.3z"/>
		<path class="st1" d="M97.6,214.1c-6.5-11-20.8-14.7-31.8-8.1l0,0c-11,6.5-14.7,20.8-8.2,31.8c3.1,5.3,8.3,9.2,14.3,10.7
			c1.9,0.5,3.8,0.7,5.8,0.7c4.2,0,8.2-1.1,11.8-3.2C100.5,239.4,104.2,225.2,97.6,214.1z M86.4,240.9c-8.2,4.9-18.8,2.2-23.7-6
			s-2.2-18.8,6-23.7c8.2-4.9,18.8-2.2,23.7,6c4.9,8.1,2.3,18.7-5.8,23.6C86.6,240.8,86.5,240.8,86.4,240.9z"/>
		<path class="st1" d="M153.1,179.1c3.9,3.8,9.2,6,14.7,6.1c5.6,0,11.1-2.4,15.8-7c6.3-6.1,10.5-14,12-22.6
			c1.7-8.5-0.5-17.3-5.9-24.1c-5.4-6.5-13.4-10.2-21.8-10.2c-14.7,0-26.8,10.7-28.2,25C138.4,158.6,143.1,170,153.1,179.1z
			 M145.4,146.8c1.1-11.3,10.7-19.8,22.5-19.8l0,0c6.7,0,13.1,2.9,17.4,8.1c4.4,5.4,6.2,12.5,4.8,19.3c-1.4,7.5-5,14.3-10.5,19.6
			c-7,6.9-15.5,7.2-22.6,0.8C148.2,166.9,144.3,157.4,145.4,146.8z"/>
	</g>
</g>
</svg>
