<?xml version="1.0" encoding="UTF-8"?> <svg xmlns="http://www.w3.org/2000/svg" xmlns:xlink="http://www.w3.org/1999/xlink" version="1.1" id="Layer_1" x="0px" y="0px" width="512px" height="512px" viewBox="0 0 512 512" style="enable-background:new 0 0 512 512;" xml:space="preserve"> <style type="text/css"> .st0{fill:#519c60;} .st1{fill:#a9deb3;} </style> <g> <path class="st0" d="M369.5,297.2c0,0-225.2,0-226.3,0c-5.7-39.3,18.1-86.1,39.8-105.3c6.5-5.7,27.6-22.5,35.5-25.9 c6.6-2.9,16.4-6.3,23.6-7.6c5.6-1.1,13.1-0.3,18.8,0.1c11.9,0.8,25.2,5.3,35,12.1c15,10.4,28.2,18.4,40.2,32.2 C349.2,217.7,369.5,269.6,369.5,297.2z"></path> <path class="st1" d="M214.4,334.2c7.1-4.4,15.3-6.5,23.4-7.9c14.3-2.4,24.6-3.3,38.9-1c8.8,1.4,17.9,7,24.8,12.6 c10.5,8.4,15.9,18.7,14.6,32.1c-1.3,13.4-4.3,27.3-12,38.4c-2.9,4.2-6,8.2-10.2,11.1c-4.1,2.8-9,4.3-13.9,5.5 c-8.3,2.1-16.9,3.5-25.4,3.1C213.2,426.2,168.3,362.7,214.4,334.2z"></path> <path d="M264.5,128.3c3.8-2.1,7.9-4.9,10.8-8.2c3.5-3.9,5.9-8.5,7.3-13.6c1.4-5.2-0.7-12-4.4-15.7c-6.5-6.5-16.2-7.2-21.4-6.9 c-9,0.6-17.6,4.2-23.4,11.5c-1.7,2.1-4.4,7.2-4.6,10.8c-0.3,7.8,5,17.6,10.8,21.2C246.4,131.8,257.4,132.2,264.5,128.3z"></path> </g> </svg> 