<svg xmlns="http://www.w3.org/2000/svg" width="1203.182" height="1203.182"><defs><linearGradient id="a" x1=".5" x2=".5" y2="1" gradientUnits="objectBoundingBox"><stop offset="0" stop-color="#fff"/><stop offset="1" stop-color="#f9d3c4"/></linearGradient></defs><path data-name="Path 2216" d="M767.276 32.059c-28.133 13.152-53.562 30.753-82.2 42.98-47.89 20.448-104 24.747-155.021 11.878-41.831-10.55-79.233-31.845-119.5-46.54-87.687-31.993-191.72-30.444-273.91 11.79S-1.371 179 5.6 264.132c2.108 25.785 10.108 52.021 28.531 71.821 11.3 12.147 26.111 21.4 42.054 28.081 23.758 9.952 50.615 14.366 76.515 10.853 27.6-3.741 52.705-16.045 78.961-24.582 82-26.653 178.223-14.351 248.786 31.812 25.6 16.741 47.734 37.435 72.947 54.64 107.939 73.666 277.809 109.33 410.317 84.549 216.467-40.477 218.229-200.914 218.88-254.82C1184.1 143 1095.541 65.81 1017.835 31.208 979.07 13.95 935.787 5.174 892.578 5.174c-43.41 0-86.741 8.863-125.3 26.885" transform="rotate(45 193.999 443.759)" opacity=".45" fill="url(#a)"/></svg>
