<?xml version="1.0" encoding="UTF-8"?> <svg xmlns="http://www.w3.org/2000/svg" xmlns:xlink="http://www.w3.org/1999/xlink" version="1.1" id="Layer_1" x="0px" y="0px" width="512px" height="512px" viewBox="0 0 512 512" style="enable-background:new 0 0 512 512;" xml:space="preserve"> <style type="text/css"> .st0{fill:#BE3455;} </style> <g> <g> <path class="st0" style="fill: #BE3455;" d="M174,141.2c20.9-18,48.1-30.7,77.5-30.7c30.3,0.1,59,12.7,81,31.1c63.7,52.8,59.6,179.2,56.1,243.4h-23.1 c3.5-62.5,2.2-167.6-45.5-224c-16.3-19.2-41.1-25.9-67.5-26l-0.6,0c-25.4,0-48.4,7.2-64.7,24.8c-51.5,55.4-47.2,162.2-42.2,225.3 h-21.7C118.2,320.1,111.1,195.3,174,141.2z"></path> <path class="st0" style="fill: #FBBB04;" d="M172.2,309.9c2-63.4,15.4-108.5,38.9-130.5c11.4-10.7,25-15.9,41.5-15.9l0.4,0c17.3,0.1,31.7,5.7,43.9,17 C321,202.9,335.6,248,339,310.9c1.7,30,0.4,57.3-0.8,74h-10.6c1.2-16.4,2.5-43.6,0.8-73.6c-3.4-60.8-17-104-39.5-125 c-10.1-9.4-21.9-14-36.1-14.1l-0.3,0c-13.3,0-24.2,4.2-33.6,13c-21.8,20.4-34.3,63.6-36.2,124.8c-0.9,30.3,1,58.2,2.7,74.8h-10.6 C173.2,368,171.3,340.1,172.2,309.9z"></path> <path class="st0" style="fill: #BE3455;"   d="M193,316.6c1.5-57.8,11.5-98.9,29-119c8.5-9.8,18.6-14.5,30.9-14.5l0.3,0c12.9,0.1,23.6,5.2,32.7,15.5 c18,20.5,28.9,61.6,31.5,119c1.2,27.3,0.3,52.3-0.6,67.5h-7.9c0.9-14.9,1.9-39.8,0.6-67.1c-2.5-55.5-12.7-94.9-29.4-113.9 c-7.5-8.6-16.3-12.8-26.9-12.8l-0.2,0c-9.9,0-18.1,3.9-25,11.8c-16.3,18.6-25.6,58-27,113.8c-0.7,27.6,0.8,53.1,2,68.2H195 C193.8,369.6,192.3,344.1,193,316.6z"></path> <path class="st0" style="fill: #e6e200;" d="M151.4,309.7c2.1-70.9,21.2-120.1,48.1-145.8c14.4-13.7,32.2-20.7,53-20.7c0.2,0,0.3,0,0.5,0c21.7,0.1,40.3,7.5,55.5,21.8 c27.5,26.2,47,76.4,50.7,146.7c1.6,29.3,0.6,56.4-0.6,74.6h-10.6c3.1-49.1,1.5-168.8-47.4-215.2c-13.2-12.6-28.8-18.7-47.6-18.8 c-0.1,0-0.3,0-0.4,0c-17.9,0-32.7,5.8-45.1,17.7c-47.7,45.6-47.3,165.8-43,215.3h-10.6C152.1,366.8,150.5,339.4,151.4,309.7z"></path> </g> </g> </svg> 