<?xml version="1.0" encoding="UTF-8"?>
<svg xmlns="http://www.w3.org/2000/svg" xmlns:xlink="http://www.w3.org/1999/xlink" width="600" zoomAndPan="magnify" viewBox="0 0 450 449.999984" height="600" preserveAspectRatio="xMidYMid meet" version="1.0">
  <defs>
    <clipPath id="29aa8d52db">
      <path d="M 0 0 L 450 0 L 450 232.5 L 0 232.5 Z M 0 0 " clip-rule="nonzero"></path>
    </clipPath>
  </defs>
  <path fill="#ff0000" d="M 225 -19.722656 C 214.125 -19.722656 205.277344 -10.875 205.277344 0 C 205.277344 10.875 214.125 19.71875 225 19.71875 C 235.875 19.71875 244.722656 10.875 244.722656 0 C 244.722656 -10.875 235.875 -19.722656 225 -19.722656 Z M 225 27.5625 C 209.800781 27.5625 197.433594 15.199219 197.433594 0 C 197.433594 -15.203125 209.800781 -27.570312 225 -27.570312 C 240.199219 -27.570312 252.566406 -15.203125 252.566406 0 C 252.566406 15.199219 240.199219 27.5625 225 27.5625 " fill-opacity="1" fill-rule="nonzero"></path>
  <path fill="#ff4d00" d="M 224.996094 -39.054688 C 214.566406 -39.054688 204.757812 -34.992188 197.382812 -27.617188 C 190.007812 -20.238281 185.945312 -10.433594 185.945312 0 C 185.945312 10.429688 190.007812 20.238281 197.382812 27.613281 C 204.757812 34.992188 214.566406 39.054688 224.996094 39.054688 C 235.429688 39.054688 245.238281 34.992188 252.613281 27.613281 C 259.988281 20.238281 264.054688 10.429688 264.054688 0 C 264.054688 -10.433594 259.988281 -20.238281 252.613281 -27.617188 C 245.238281 -34.992188 235.429688 -39.054688 224.996094 -39.054688 Z M 224.996094 46.195312 C 218.765625 46.195312 212.710938 44.972656 207.015625 42.5625 C 201.511719 40.238281 196.574219 36.90625 192.332031 32.664062 C 188.09375 28.421875 184.761719 23.484375 182.433594 17.984375 C 180.023438 12.285156 178.800781 6.234375 178.800781 0 C 178.800781 -6.238281 180.023438 -12.289062 182.433594 -17.984375 C 184.761719 -23.484375 188.09375 -28.425781 192.332031 -32.667969 C 196.574219 -36.90625 201.511719 -40.238281 207.015625 -42.566406 C 212.710938 -44.976562 218.765625 -46.199219 224.996094 -46.199219 C 231.234375 -46.199219 237.285156 -44.976562 242.980469 -42.566406 C 248.480469 -40.238281 253.421875 -36.90625 257.664062 -32.667969 C 261.90625 -28.425781 265.234375 -23.484375 267.5625 -17.984375 C 269.972656 -12.289062 271.195312 -6.238281 271.195312 0 C 271.195312 6.234375 269.972656 12.285156 267.5625 17.984375 C 265.234375 23.484375 261.90625 28.421875 257.664062 32.664062 C 253.421875 36.90625 248.480469 40.238281 242.980469 42.5625 C 237.285156 44.972656 231.234375 46.195312 224.996094 46.195312 " fill-opacity="1" fill-rule="nonzero"></path>
  <path fill="#ff4d00" d="M 224.996094 -58.386719 C 217.117188 -58.386719 209.46875 -56.84375 202.273438 -53.800781 C 195.320312 -50.859375 189.078125 -46.648438 183.714844 -41.285156 C 178.351562 -35.921875 174.140625 -29.679688 171.199219 -22.726562 C 168.15625 -15.53125 166.613281 -7.882812 166.613281 0 C 166.613281 7.882812 168.15625 15.527344 171.199219 22.722656 C 174.140625 29.675781 178.351562 35.921875 183.714844 41.285156 C 189.078125 46.648438 195.320312 50.855469 202.273438 53.796875 C 209.46875 56.84375 217.117188 58.386719 224.996094 58.386719 C 232.882812 58.386719 240.527344 56.84375 247.722656 53.796875 C 254.675781 50.855469 260.921875 46.648438 266.285156 41.285156 C 271.648438 35.921875 275.855469 29.675781 278.796875 22.722656 C 281.839844 15.527344 283.382812 7.882812 283.382812 0 C 283.382812 -7.882812 281.839844 -15.53125 278.796875 -22.726562 C 275.855469 -29.679688 271.648438 -35.921875 266.285156 -41.285156 C 260.921875 -46.648438 254.675781 -50.859375 247.722656 -53.800781 C 240.527344 -56.84375 232.882812 -58.386719 224.996094 -58.386719 Z M 224.996094 64.828125 C 216.25 64.828125 207.757812 63.109375 199.761719 59.730469 C 192.042969 56.464844 185.113281 51.789062 179.160156 45.835938 C 173.207031 39.886719 168.53125 32.953125 165.265625 25.234375 C 161.886719 17.238281 160.171875 8.75 160.171875 0 C 160.171875 -8.75 161.886719 -17.242188 165.265625 -25.238281 C 168.53125 -32.957031 173.207031 -39.886719 179.160156 -45.839844 C 185.113281 -51.792969 192.042969 -56.46875 199.761719 -59.730469 C 207.757812 -63.113281 216.25 -64.828125 224.996094 -64.828125 C 233.75 -64.828125 242.238281 -63.113281 250.234375 -59.730469 C 257.953125 -56.46875 264.882812 -51.792969 270.835938 -45.839844 C 276.789062 -39.886719 281.464844 -32.957031 284.730469 -25.238281 C 288.109375 -17.242188 289.824219 -8.75 289.824219 0 C 289.824219 8.75 288.109375 17.238281 284.730469 25.234375 C 281.464844 32.953125 276.789062 39.886719 270.835938 45.835938 C 264.882812 51.789062 257.953125 56.464844 250.234375 59.730469 C 242.238281 63.109375 233.75 64.828125 224.996094 64.828125 " fill-opacity="1" fill-rule="nonzero"></path>
  <path fill="#ff6700" d="M 225 -77.71875 C 214.507812 -77.71875 204.328125 -75.664062 194.75 -71.613281 C 185.496094 -67.699219 177.183594 -62.09375 170.042969 -54.957031 C 162.90625 -47.816406 157.300781 -39.507812 153.386719 -30.253906 C 149.335938 -20.671875 147.28125 -10.496094 147.28125 0 C 147.28125 10.492188 149.335938 20.667969 153.386719 30.25 C 157.300781 39.503906 162.90625 47.8125 170.042969 54.953125 C 177.183594 62.089844 185.496094 67.695312 194.75 71.609375 C 204.328125 75.664062 214.507812 77.714844 225 77.714844 C 235.492188 77.714844 245.667969 75.664062 255.25 71.609375 C 264.503906 67.695312 272.816406 62.089844 279.953125 54.953125 C 287.089844 47.8125 292.695312 39.503906 296.609375 30.25 C 300.664062 20.667969 302.714844 10.492188 302.714844 0 C 302.714844 -10.496094 300.664062 -20.671875 296.609375 -30.253906 C 292.695312 -39.507812 287.089844 -47.816406 279.953125 -54.957031 C 272.816406 -62.09375 264.503906 -67.699219 255.25 -71.613281 C 245.667969 -75.664062 235.492188 -77.71875 225 -77.71875 Z M 225 83.457031 C 213.734375 83.457031 202.804688 81.25 192.511719 76.894531 C 182.574219 72.691406 173.648438 66.675781 165.984375 59.011719 C 158.324219 51.347656 152.304688 42.421875 148.101562 32.484375 C 143.75 22.195312 141.542969 11.265625 141.542969 0 C 141.542969 -11.269531 143.75 -22.195312 148.101562 -32.488281 C 152.304688 -42.425781 158.324219 -51.351562 165.984375 -59.015625 C 173.648438 -66.679688 182.574219 -72.695312 192.511719 -76.898438 C 202.804688 -81.25 213.734375 -83.460938 225 -83.460938 C 236.265625 -83.460938 247.195312 -81.25 257.484375 -76.898438 C 267.425781 -72.695312 276.347656 -66.679688 284.011719 -59.015625 C 291.675781 -51.351562 297.695312 -42.425781 301.898438 -32.488281 C 306.25 -22.195312 308.457031 -11.269531 308.457031 0 C 308.457031 11.265625 306.25 22.195312 301.898438 32.484375 C 297.695312 42.421875 291.675781 51.347656 284.011719 59.011719 C 276.347656 66.675781 267.425781 72.691406 257.484375 76.894531 C 247.195312 81.25 236.265625 83.457031 225 83.457031 " fill-opacity="1" fill-rule="nonzero"></path>
  <path fill="#ff6700" d="M 224.996094 -97.050781 C 211.894531 -97.050781 199.1875 -94.484375 187.222656 -89.421875 C 175.667969 -84.535156 165.289062 -77.539062 156.375 -68.625 C 147.460938 -59.710938 140.460938 -49.332031 135.574219 -37.777344 C 130.515625 -25.8125 127.949219 -13.101562 127.949219 0 C 127.949219 13.101562 130.515625 25.808594 135.574219 37.773438 C 140.460938 49.328125 147.460938 59.710938 156.375 68.621094 C 165.289062 77.535156 175.667969 84.535156 187.222656 89.421875 C 199.1875 94.484375 211.894531 97.046875 224.996094 97.046875 C 238.101562 97.046875 250.808594 94.484375 262.773438 89.421875 C 274.328125 84.535156 284.710938 77.535156 293.621094 68.621094 C 302.535156 59.710938 309.53125 49.328125 314.421875 37.773438 C 319.480469 25.808594 322.046875 13.101562 322.046875 0 C 322.046875 -13.101562 319.480469 -25.8125 314.421875 -37.777344 C 309.53125 -49.332031 302.535156 -59.710938 293.621094 -68.625 C 284.710938 -77.539062 274.328125 -84.535156 262.773438 -89.421875 C 250.808594 -94.484375 238.101562 -97.050781 224.996094 -97.050781 Z M 224.996094 102.085938 C 211.21875 102.085938 197.847656 99.386719 185.261719 94.0625 C 173.105469 88.921875 162.1875 81.558594 152.8125 72.183594 C 143.4375 62.8125 136.078125 51.894531 130.933594 39.738281 C 125.609375 27.148438 122.910156 13.777344 122.910156 0 C 122.910156 -13.78125 125.609375 -27.152344 130.933594 -39.738281 C 136.078125 -51.894531 143.4375 -62.8125 152.8125 -72.1875 C 162.1875 -81.5625 173.105469 -88.921875 185.261719 -94.0625 C 197.847656 -99.390625 211.21875 -102.089844 224.996094 -102.089844 C 238.777344 -102.089844 252.148438 -99.390625 264.734375 -94.0625 C 276.894531 -88.921875 287.808594 -81.5625 297.183594 -72.1875 C 306.558594 -62.8125 313.921875 -51.894531 319.0625 -39.738281 C 324.386719 -27.152344 327.085938 -13.78125 327.085938 0 C 327.085938 13.777344 324.386719 27.148438 319.0625 39.738281 C 313.921875 51.894531 306.558594 62.8125 297.183594 72.183594 C 287.808594 81.558594 276.894531 88.921875 264.734375 94.0625 C 252.148438 99.386719 238.777344 102.085938 224.996094 102.085938 " fill-opacity="1" fill-rule="nonzero"></path>
  <path fill="#ff8100" d="M 224.996094 -116.382812 C 209.289062 -116.382812 194.046875 -113.304688 179.699219 -107.234375 C 165.839844 -101.375 153.394531 -92.980469 142.703125 -82.292969 C 132.015625 -71.605469 123.625 -59.160156 117.761719 -45.300781 C 111.695312 -30.953125 108.617188 -15.710938 108.617188 0 C 108.617188 15.710938 111.695312 30.953125 117.761719 45.300781 C 123.625 59.15625 132.015625 71.601562 142.703125 82.292969 C 153.394531 92.980469 165.839844 101.371094 179.699219 107.234375 C 194.046875 113.304688 209.289062 116.378906 224.996094 116.378906 C 240.710938 116.378906 255.953125 113.304688 270.300781 107.234375 C 284.15625 101.371094 296.601562 92.980469 307.292969 82.292969 C 317.980469 71.601562 326.371094 59.15625 332.234375 45.300781 C 338.304688 30.953125 341.378906 15.710938 341.378906 0 C 341.378906 -15.710938 338.304688 -30.953125 332.234375 -45.300781 C 326.371094 -59.160156 317.980469 -71.605469 307.292969 -82.292969 C 296.601562 -92.980469 284.15625 -101.375 270.300781 -107.234375 C 255.953125 -113.304688 240.710938 -116.382812 224.996094 -116.382812 Z M 224.996094 120.71875 C 208.703125 120.71875 192.894531 117.527344 178.007812 111.230469 C 163.632812 105.148438 150.722656 96.445312 139.636719 85.359375 C 128.550781 74.273438 119.847656 61.363281 113.769531 46.988281 C 107.472656 32.105469 104.28125 16.292969 104.28125 0 C 104.28125 -16.296875 107.472656 -32.105469 113.769531 -46.988281 C 119.847656 -61.367188 128.550781 -74.273438 139.636719 -85.359375 C 150.722656 -96.445312 163.632812 -105.152344 178.007812 -111.230469 C 192.894531 -117.527344 208.703125 -120.71875 224.996094 -120.71875 C 241.292969 -120.71875 257.105469 -117.527344 271.988281 -111.230469 C 286.363281 -105.152344 299.269531 -96.445312 310.359375 -85.359375 C 321.445312 -74.273438 330.148438 -61.367188 336.230469 -46.988281 C 342.523438 -32.105469 345.714844 -16.296875 345.714844 0 C 345.714844 16.292969 342.523438 32.105469 336.230469 46.988281 C 330.148438 61.363281 321.445312 74.273438 310.359375 85.359375 C 299.269531 96.445312 286.363281 105.148438 271.988281 111.230469 C 257.105469 117.527344 241.292969 120.71875 224.996094 120.71875 " fill-opacity="1" fill-rule="nonzero"></path>
  <path fill="#ff8100" d="M 225 -135.714844 C 206.675781 -135.714844 188.902344 -132.125 172.175781 -125.046875 C 156.015625 -118.214844 141.5 -108.425781 129.035156 -95.964844 C 116.570312 -83.5 106.785156 -68.984375 99.953125 -52.824219 C 92.875 -36.097656 89.285156 -18.324219 89.285156 -0.00390625 C 89.285156 18.320312 92.875 36.09375 99.953125 52.824219 C 106.785156 68.984375 116.570312 83.496094 129.035156 95.960938 C 141.5 108.425781 156.015625 118.210938 172.175781 125.046875 C 188.902344 132.125 206.675781 135.710938 225 135.710938 C 243.320312 135.710938 261.09375 132.125 277.824219 125.046875 C 293.984375 118.210938 308.496094 108.425781 320.960938 95.960938 C 333.425781 83.496094 343.210938 68.984375 350.046875 52.824219 C 357.125 36.09375 360.710938 18.320312 360.710938 -0.00390625 C 360.710938 -18.324219 357.125 -36.097656 350.046875 -52.824219 C 343.210938 -68.984375 333.425781 -83.5 320.960938 -95.964844 C 308.496094 -108.425781 293.984375 -118.214844 277.824219 -125.046875 C 261.09375 -132.125 243.320312 -135.714844 225 -135.714844 Z M 225 139.347656 C 206.1875 139.347656 187.9375 135.664062 170.757812 128.394531 C 154.164062 121.378906 139.261719 111.328125 126.464844 98.53125 C 113.667969 85.734375 103.621094 70.832031 96.601562 54.238281 C 89.335938 37.058594 85.648438 18.808594 85.648438 -0.00390625 C 85.648438 -18.8125 89.335938 -37.0625 96.601562 -54.242188 C 103.621094 -70.835938 113.667969 -85.738281 126.464844 -98.535156 C 139.261719 -111.332031 154.164062 -121.378906 170.757812 -128.398438 C 187.9375 -135.664062 206.1875 -139.351562 225 -139.351562 C 243.8125 -139.351562 262.058594 -135.664062 279.238281 -128.398438 C 295.832031 -121.378906 310.738281 -111.332031 323.53125 -98.535156 C 336.332031 -85.738281 346.378906 -70.835938 353.398438 -54.242188 C 360.664062 -37.0625 364.347656 -18.8125 364.347656 -0.00390625 C 364.347656 18.808594 360.664062 37.058594 353.398438 54.238281 C 346.378906 70.832031 336.332031 85.734375 323.53125 98.53125 C 310.738281 111.328125 295.832031 121.378906 279.238281 128.394531 C 262.058594 135.664062 243.8125 139.347656 225 139.347656 " fill-opacity="1" fill-rule="nonzero"></path>
  <path fill="#ffa700" d="M 225 -155.042969 C 204.066406 -155.042969 183.761719 -150.945312 164.648438 -142.863281 C 155.460938 -138.976562 146.601562 -134.167969 138.3125 -128.566406 C 130.105469 -123.019531 122.382812 -116.648438 115.367188 -109.632812 C 108.351562 -102.617188 101.980469 -94.894531 96.433594 -86.6875 C 90.835938 -78.398438 86.023438 -69.539062 82.140625 -60.351562 C 74.054688 -41.238281 69.957031 -20.933594 69.957031 0 C 69.957031 20.929688 74.054688 41.234375 82.140625 60.347656 C 86.023438 69.535156 90.835938 78.394531 96.433594 86.683594 C 101.980469 94.894531 108.351562 102.613281 115.367188 109.632812 C 122.382812 116.648438 130.105469 123.015625 138.3125 128.5625 C 146.601562 134.164062 155.460938 138.972656 164.648438 142.859375 C 183.761719 150.941406 204.066406 155.042969 225 155.042969 C 245.929688 155.042969 266.234375 150.941406 285.347656 142.859375 C 294.535156 138.972656 303.394531 134.164062 311.683594 128.5625 C 319.894531 123.015625 327.613281 116.648438 334.628906 109.632812 C 341.648438 102.613281 348.015625 94.894531 353.5625 86.683594 C 359.164062 78.394531 363.972656 69.535156 367.855469 60.347656 C 375.941406 41.234375 380.042969 20.929688 380.042969 0 C 380.042969 -20.933594 375.941406 -41.238281 367.855469 -60.351562 C 363.972656 -69.539062 359.164062 -78.398438 353.5625 -86.6875 C 348.015625 -94.894531 341.648438 -102.617188 334.628906 -109.632812 C 327.613281 -116.648438 319.894531 -123.019531 311.683594 -128.566406 C 303.394531 -134.167969 294.535156 -138.976562 285.347656 -142.863281 C 266.234375 -150.945312 245.929688 -155.042969 225 -155.042969 Z M 225 157.976562 C 203.671875 157.976562 182.984375 153.800781 163.503906 145.5625 C 154.144531 141.601562 145.117188 136.703125 136.671875 130.996094 C 128.304688 125.34375 120.4375 118.855469 113.292969 111.707031 C 106.144531 104.558594 99.652344 96.691406 94 88.328125 C 88.296875 79.882812 83.394531 70.851562 79.433594 61.492188 C 71.195312 42.015625 67.019531 21.324219 67.019531 0 C 67.019531 -21.328125 71.195312 -42.015625 79.433594 -61.496094 C 83.394531 -70.855469 88.296875 -79.886719 94 -88.328125 C 99.652344 -96.695312 106.144531 -104.5625 113.292969 -111.707031 C 120.4375 -118.855469 128.304688 -125.347656 136.671875 -131 C 145.117188 -136.707031 154.144531 -141.605469 163.503906 -145.566406 C 182.984375 -153.804688 203.671875 -157.980469 225 -157.980469 C 246.324219 -157.980469 267.015625 -153.804688 286.492188 -145.566406 C 295.851562 -141.605469 304.882812 -136.707031 313.328125 -131 C 321.691406 -125.347656 329.558594 -118.855469 336.707031 -111.707031 C 343.855469 -104.5625 350.34375 -96.695312 355.996094 -88.328125 C 361.703125 -79.886719 366.601562 -70.855469 370.5625 -61.496094 C 378.800781 -42.015625 382.976562 -21.328125 382.976562 0 C 382.976562 21.324219 378.800781 42.015625 370.5625 61.492188 C 366.601562 70.851562 361.703125 79.882812 355.996094 88.328125 C 350.34375 96.691406 343.855469 104.558594 336.707031 111.707031 C 329.558594 118.855469 321.691406 125.34375 313.328125 130.996094 C 304.882812 136.703125 295.851562 141.601562 286.492188 145.5625 C 267.015625 153.800781 246.324219 157.976562 225 157.976562 " fill-opacity="1" fill-rule="nonzero"></path>
  <path fill="#ffa700" d="M 224.996094 -174.375 C 201.457031 -174.375 178.621094 -169.765625 157.125 -160.671875 C 146.792969 -156.300781 136.828125 -150.894531 127.503906 -144.597656 C 118.269531 -138.355469 109.589844 -131.195312 101.695312 -123.300781 C 93.804688 -115.410156 86.640625 -106.726562 80.402344 -97.492188 C 74.105469 -88.171875 68.695312 -78.207031 64.328125 -67.875 C 55.234375 -46.378906 50.625 -23.542969 50.625 0 C 50.625 23.539062 55.234375 46.375 64.328125 67.875 C 68.695312 78.203125 74.105469 88.171875 80.402344 97.492188 C 86.640625 106.726562 93.804688 115.410156 101.695312 123.300781 C 109.589844 131.191406 118.269531 138.355469 127.503906 144.59375 C 136.828125 150.890625 146.792969 156.300781 157.125 160.671875 C 178.621094 169.761719 201.457031 174.375 224.996094 174.375 C 248.539062 174.375 271.375 169.761719 292.871094 160.671875 C 303.207031 156.300781 313.167969 150.890625 322.492188 144.59375 C 331.726562 138.355469 340.410156 131.191406 348.300781 123.300781 C 356.191406 115.410156 363.355469 106.726562 369.59375 97.492188 C 375.890625 88.171875 381.300781 78.203125 385.667969 67.875 C 394.761719 46.375 399.371094 23.539062 399.371094 0 C 399.371094 -23.542969 394.761719 -46.378906 385.667969 -67.875 C 381.300781 -78.207031 375.890625 -88.171875 369.59375 -97.492188 C 363.355469 -106.726562 356.191406 -115.410156 348.300781 -123.300781 C 340.410156 -131.195312 331.726562 -138.355469 322.492188 -144.597656 C 313.167969 -150.894531 303.207031 -156.300781 292.871094 -160.671875 C 271.375 -169.765625 248.539062 -174.375 224.996094 -174.375 Z M 224.996094 176.609375 C 201.15625 176.609375 178.027344 171.9375 156.253906 162.730469 C 145.789062 158.300781 135.695312 152.824219 126.253906 146.445312 C 116.902344 140.128906 108.109375 132.871094 100.117188 124.878906 C 92.125 116.886719 84.871094 108.09375 78.550781 98.742188 C 72.171875 89.300781 66.695312 79.207031 62.269531 68.742188 C 53.058594 46.96875 48.390625 23.839844 48.390625 0 C 48.390625 -23.84375 53.058594 -46.96875 62.269531 -68.746094 C 66.695312 -79.210938 72.171875 -89.304688 78.550781 -98.742188 C 84.871094 -108.097656 92.125 -116.890625 100.117188 -124.882812 C 108.109375 -132.871094 116.902344 -140.128906 126.253906 -146.445312 C 135.695312 -152.828125 145.789062 -158.304688 156.253906 -162.730469 C 178.027344 -171.9375 201.15625 -176.609375 224.996094 -176.609375 C 248.839844 -176.609375 271.96875 -171.9375 293.742188 -162.730469 C 304.207031 -158.304688 314.300781 -152.828125 323.742188 -146.445312 C 333.09375 -140.128906 341.886719 -132.871094 349.878906 -124.882812 C 357.871094 -116.890625 365.125 -108.097656 371.441406 -98.742188 C 377.824219 -89.304688 383.300781 -79.210938 387.726562 -68.746094 C 396.9375 -46.96875 401.605469 -23.84375 401.605469 0 C 401.605469 23.839844 396.9375 46.96875 387.726562 68.742188 C 383.300781 79.207031 377.824219 89.300781 371.441406 98.742188 C 365.125 108.09375 357.871094 116.886719 349.878906 124.878906 C 341.886719 132.871094 333.09375 140.128906 323.742188 146.445312 C 314.300781 152.824219 304.207031 158.300781 293.742188 162.730469 C 271.96875 171.9375 248.839844 176.609375 224.996094 176.609375 " fill-opacity="1" fill-rule="nonzero"></path>
  <path fill="#ffb019" d="M 225 -193.707031 C 198.847656 -193.707031 173.480469 -188.585938 149.601562 -178.484375 C 138.121094 -173.628906 127.050781 -167.621094 116.695312 -160.625 C 106.4375 -153.699219 96.792969 -145.738281 88.027344 -136.972656 C 79.261719 -128.207031 71.304688 -118.558594 64.375 -108.304688 C 57.378906 -97.945312 51.367188 -86.878906 46.515625 -75.398438 C 36.414062 -51.519531 31.292969 -26.152344 31.292969 0 C 31.292969 26.148438 36.414062 51.515625 46.515625 75.398438 C 51.367188 86.875 57.378906 97.945312 64.375 108.300781 C 71.304688 118.558594 79.261719 128.203125 88.027344 136.96875 C 96.792969 145.734375 106.4375 153.695312 116.695312 160.625 C 127.050781 167.621094 138.121094 173.628906 149.601562 178.484375 C 173.480469 188.582031 198.847656 193.707031 225 193.707031 C 251.148438 193.707031 276.515625 188.582031 300.398438 178.484375 C 311.875 173.628906 322.945312 167.621094 333.300781 160.625 C 343.558594 153.695312 353.203125 145.734375 361.972656 136.96875 C 370.734375 128.203125 378.695312 118.558594 385.625 108.300781 C 392.617188 97.945312 398.628906 86.875 403.484375 75.398438 C 413.582031 51.515625 418.707031 26.148438 418.707031 0 C 418.707031 -26.152344 413.582031 -51.519531 403.484375 -75.398438 C 398.628906 -86.878906 392.617188 -97.945312 385.625 -108.304688 C 378.695312 -118.558594 370.734375 -128.207031 361.972656 -136.972656 C 353.203125 -145.738281 343.558594 -153.699219 333.300781 -160.625 C 322.945312 -167.621094 311.875 -173.628906 300.398438 -178.484375 C 276.515625 -188.585938 251.148438 -193.707031 225 -193.707031 Z M 225 195.238281 C 198.640625 195.238281 173.074219 190.074219 149.003906 179.894531 C 137.433594 175.003906 126.273438 168.945312 115.839844 161.894531 C 105.5 154.910156 95.777344 146.890625 86.945312 138.054688 C 78.109375 129.21875 70.085938 119.496094 63.105469 109.160156 C 56.050781 98.722656 49.996094 87.5625 45.101562 75.996094 C 34.921875 51.925781 29.757812 26.355469 29.757812 0 C 29.757812 -26.359375 34.921875 -51.925781 45.101562 -76 C 49.996094 -87.566406 56.050781 -98.722656 63.105469 -109.164062 C 70.085938 -119.5 78.109375 -129.222656 86.945312 -138.058594 C 95.777344 -146.890625 105.5 -154.914062 115.839844 -161.894531 C 126.273438 -168.945312 137.433594 -175.003906 149.003906 -179.898438 C 173.074219 -190.078125 198.640625 -195.242188 225 -195.242188 C 251.355469 -195.242188 276.925781 -190.078125 300.996094 -179.898438 C 312.5625 -175.003906 323.722656 -168.945312 334.160156 -161.894531 C 344.496094 -154.914062 354.21875 -146.890625 363.054688 -138.058594 C 371.890625 -129.222656 379.910156 -119.5 386.890625 -109.164062 C 393.945312 -98.722656 400.003906 -87.566406 404.894531 -76 C 415.074219 -51.925781 420.238281 -26.359375 420.238281 0 C 420.238281 26.355469 415.074219 51.925781 404.894531 75.996094 C 400.003906 87.5625 393.945312 98.722656 386.890625 109.160156 C 379.910156 119.496094 371.890625 129.21875 363.054688 138.054688 C 354.21875 146.890625 344.496094 154.910156 334.160156 161.894531 C 323.722656 168.945312 312.5625 175.003906 300.996094 179.894531 C 276.925781 190.074219 251.355469 195.238281 225 195.238281 " fill-opacity="1" fill-rule="nonzero"></path>
  <path fill="#ffb019" d="M 225 -213.039062 C 210.542969 -213.039062 196.097656 -211.582031 182.0625 -208.710938 C 168.386719 -205.910156 154.933594 -201.734375 142.074219 -196.300781 C 129.453125 -190.960938 117.277344 -184.351562 105.886719 -176.65625 C 94.605469 -169.035156 84 -160.28125 74.359375 -150.644531 C 64.71875 -141 55.964844 -130.390625 48.34375 -119.113281 C 40.648438 -107.722656 34.042969 -95.546875 28.703125 -82.925781 C 23.265625 -70.070312 19.085938 -56.617188 16.289062 -42.9375 C 13.417969 -28.902344 11.960938 -14.457031 11.960938 0 C 11.960938 14.453125 13.417969 28.898438 16.289062 42.933594 C 19.085938 56.613281 23.265625 70.066406 28.703125 82.921875 C 34.042969 95.546875 40.648438 107.722656 48.34375 119.109375 C 55.964844 130.390625 64.71875 141 74.359375 150.640625 C 84 160.28125 94.605469 169.03125 105.886719 176.652344 C 117.277344 184.347656 129.453125 190.957031 142.074219 196.296875 C 154.933594 201.734375 168.386719 205.910156 182.0625 208.707031 C 196.097656 211.582031 210.542969 213.035156 225 213.035156 C 239.453125 213.035156 253.898438 211.582031 267.933594 208.707031 C 281.613281 205.910156 295.066406 201.734375 307.921875 196.296875 C 320.546875 190.957031 332.71875 184.347656 344.109375 176.652344 C 355.390625 169.03125 366 160.28125 375.640625 150.640625 C 385.28125 141 394.03125 130.390625 401.652344 119.109375 C 409.347656 107.722656 415.957031 95.546875 421.296875 82.921875 C 426.730469 70.066406 430.910156 56.613281 433.710938 42.933594 C 436.582031 28.898438 438.035156 14.453125 438.035156 0 C 438.035156 -14.457031 436.582031 -28.902344 433.710938 -42.9375 C 430.910156 -56.617188 426.730469 -70.070312 421.296875 -82.925781 C 415.957031 -95.546875 409.347656 -107.722656 401.652344 -119.113281 C 394.03125 -130.390625 385.28125 -141 375.640625 -150.644531 C 366 -160.28125 355.390625 -169.035156 344.109375 -176.65625 C 332.71875 -184.351562 320.546875 -190.960938 307.921875 -196.300781 C 295.066406 -201.734375 281.613281 -205.910156 267.933594 -208.710938 C 253.898438 -211.582031 239.453125 -213.039062 225 -213.039062 Z M 225 213.867188 C 210.488281 213.867188 195.988281 212.40625 181.894531 209.523438 C 168.164062 206.714844 154.65625 202.519531 141.75 197.0625 C 129.078125 191.703125 116.855469 185.066406 105.421875 177.34375 C 94.097656 169.691406 83.449219 160.90625 73.769531 151.226562 C 64.089844 141.550781 55.304688 130.902344 47.65625 119.574219 C 39.929688 108.140625 33.296875 95.917969 27.9375 83.246094 C 22.476562 70.339844 18.285156 56.832031 15.472656 43.101562 C 12.589844 29.011719 11.128906 14.507812 11.128906 0 C 11.128906 -14.511719 12.589844 -29.011719 15.472656 -43.105469 C 18.285156 -56.835938 22.476562 -70.34375 27.9375 -83.25 C 33.296875 -95.921875 39.929688 -108.144531 47.65625 -119.578125 C 55.304688 -130.902344 64.089844 -141.550781 73.769531 -151.230469 C 83.449219 -160.90625 94.097656 -169.695312 105.421875 -177.347656 C 116.855469 -185.070312 129.078125 -191.703125 141.75 -197.0625 C 154.65625 -202.523438 168.164062 -206.714844 181.894531 -209.527344 C 195.988281 -212.410156 210.488281 -213.871094 225 -213.871094 C 239.507812 -213.871094 254.011719 -212.410156 268.101562 -209.527344 C 281.832031 -206.714844 295.339844 -202.523438 308.246094 -197.0625 C 320.921875 -191.703125 333.140625 -185.070312 344.574219 -177.347656 C 355.902344 -169.695312 366.546875 -160.90625 376.230469 -151.230469 C 385.90625 -141.550781 394.691406 -130.902344 402.34375 -119.578125 C 410.066406 -108.144531 416.699219 -95.921875 422.0625 -83.25 C 427.519531 -70.34375 431.714844 -56.835938 434.523438 -43.105469 C 437.40625 -29.011719 438.867188 -14.511719 438.867188 0 C 438.867188 14.507812 437.40625 29.011719 434.523438 43.101562 C 431.714844 56.832031 427.519531 70.339844 422.0625 83.246094 C 416.699219 95.917969 410.066406 108.140625 402.34375 119.574219 C 394.691406 130.902344 385.90625 141.550781 376.230469 151.226562 C 366.546875 160.90625 355.902344 169.691406 344.574219 177.34375 C 333.140625 185.066406 320.921875 191.703125 308.246094 197.0625 C 295.339844 202.519531 281.832031 206.714844 268.101562 209.523438 C 254.011719 212.40625 239.507812 213.867188 225 213.867188 " fill-opacity="1" fill-rule="nonzero"></path>
  <g clip-path="url(#29aa8d52db)">
    <path fill="#ffb019" d="M 225 -232.371094 C 209.234375 -232.371094 193.476562 -230.78125 178.167969 -227.648438 C 163.25 -224.597656 148.574219 -220.039062 134.550781 -214.109375 C 120.78125 -208.285156 107.5 -201.078125 95.078125 -192.683594 C 82.773438 -184.371094 71.203125 -174.828125 60.6875 -164.3125 C 50.171875 -153.796875 40.625 -142.226562 32.3125 -129.921875 C 23.921875 -117.496094 16.714844 -104.21875 10.890625 -90.449219 C 4.957031 -76.425781 0.402344 -61.75 -2.648438 -46.832031 C -5.78125 -31.523438 -7.371094 -15.765625 -7.371094 0 C -7.371094 15.765625 -5.78125 31.519531 -2.648438 46.828125 C 0.402344 61.75 4.957031 76.425781 10.890625 90.449219 C 16.714844 104.214844 23.921875 117.496094 32.3125 129.917969 C 40.625 142.222656 50.171875 153.792969 60.6875 164.308594 C 71.203125 174.824219 82.773438 184.371094 95.078125 192.683594 C 107.5 201.074219 120.78125 208.285156 134.550781 214.109375 C 148.574219 220.039062 163.25 224.59375 178.167969 227.648438 C 193.476562 230.78125 209.234375 232.367188 225 232.367188 C 240.765625 232.367188 256.519531 230.78125 271.828125 227.648438 C 286.75 224.59375 301.421875 220.039062 315.449219 214.109375 C 329.214844 208.285156 342.496094 201.074219 354.917969 192.683594 C 367.222656 184.371094 378.792969 174.824219 389.308594 164.308594 C 399.824219 153.792969 409.367188 142.222656 417.683594 129.917969 C 426.074219 117.496094 433.285156 104.214844 439.105469 90.449219 C 445.035156 76.425781 449.59375 61.75 452.648438 46.828125 C 455.78125 31.519531 457.367188 15.765625 457.367188 0 C 457.367188 -15.765625 455.78125 -31.523438 452.648438 -46.832031 C 449.59375 -61.75 445.035156 -76.425781 439.105469 -90.449219 C 433.285156 -104.21875 426.074219 -117.496094 417.683594 -129.921875 C 409.367188 -142.226562 399.824219 -153.796875 389.308594 -164.3125 C 378.792969 -174.828125 367.222656 -184.371094 354.917969 -192.683594 C 342.496094 -201.078125 329.214844 -208.285156 315.449219 -214.109375 C 301.421875 -220.039062 286.75 -224.597656 271.828125 -227.648438 C 256.519531 -230.78125 240.765625 -232.371094 225 -232.371094 Z M 225 232.5 C 209.222656 232.5 193.457031 230.910156 178.140625 227.777344 C 163.214844 224.71875 148.53125 220.164062 134.5 214.226562 C 120.722656 208.402344 107.433594 201.1875 95.003906 192.792969 C 82.695312 184.472656 71.117188 174.921875 60.597656 164.402344 C 50.074219 153.878906 40.523438 142.304688 32.207031 129.992188 C 23.808594 117.5625 16.597656 104.273438 10.769531 90.496094 C 4.835938 76.46875 0.277344 61.785156 -2.777344 46.855469 C -5.914062 31.539062 -7.5 15.773438 -7.5 0 C -7.5 -15.773438 -5.914062 -31.539062 -2.777344 -46.855469 C 0.277344 -61.785156 4.835938 -76.46875 10.769531 -90.5 C 16.597656 -104.277344 23.808594 -117.5625 32.207031 -129.992188 C 40.523438 -142.304688 50.074219 -153.882812 60.597656 -164.402344 C 71.117188 -174.921875 82.695312 -184.476562 95.003906 -192.792969 C 107.433594 -201.191406 120.722656 -208.402344 134.5 -214.230469 C 148.53125 -220.164062 163.214844 -224.722656 178.140625 -227.777344 C 193.457031 -230.910156 209.222656 -232.5 225 -232.5 C 240.773438 -232.5 256.539062 -230.910156 271.855469 -227.777344 C 286.78125 -224.722656 301.464844 -220.164062 315.496094 -214.230469 C 329.273438 -208.402344 342.5625 -201.191406 354.988281 -192.792969 C 367.300781 -184.476562 378.878906 -174.921875 389.398438 -164.402344 C 399.921875 -153.882812 409.472656 -142.304688 417.789062 -129.992188 C 426.1875 -117.5625 433.402344 -104.277344 439.226562 -90.5 C 445.164062 -76.46875 449.722656 -61.785156 452.773438 -46.855469 C 455.910156 -31.539062 457.496094 -15.773438 457.496094 0 C 457.496094 15.773438 455.910156 31.539062 452.773438 46.855469 C 449.722656 61.785156 445.164062 76.46875 439.226562 90.496094 C 433.402344 104.273438 426.1875 117.5625 417.789062 129.992188 C 409.472656 142.304688 399.921875 153.878906 389.398438 164.402344 C 378.878906 174.921875 367.300781 184.472656 354.988281 192.792969 C 342.5625 201.1875 329.273438 208.402344 315.496094 214.226562 C 301.464844 220.164062 286.78125 224.71875 271.855469 227.777344 C 256.539062 230.910156 240.773438 232.5 225 232.5 " fill-opacity="1" fill-rule="nonzero"></path>
  </g>
</svg>
