<?xml version="1.0" standalone="no"?>
<svg viewBox="0 0 200 200" xmlns="http://www.w3.org/2000/svg">
  <path fill="#F2F4F8" d="M32.1,-45.9C46.5,-40.8,66.3,-40.1,73.3,-31.5C80.3,-22.9,74.6,-6.5,67,5.9C59.5,18.3,50,26.8,40.6,32.1C31.2,37.3,21.7,39.5,11.5,45.3C1.3,51.1,-9.6,60.6,-20,60.9C-30.4,61.2,-40.1,52.2,-49.4,42.3C-58.6,32.5,-67.3,21.7,-72.1,8.5C-76.8,-4.6,-77.6,-20.2,-73.3,-35.1C-69,-50,-59.7,-64.2,-46.6,-69.9C-33.6,-75.6,-16.8,-72.8,-3.9,-66.7C8.9,-60.5,17.8,-51,32.1,-45.9Z" transform="translate(100 100)" />
</svg>
