<?xml version="1.0" standalone="no"?>
<!DOCTYPE svg PUBLIC "-//W3C//DTD SVG 20010904//EN"
 "http://www.w3.org/TR/2001/REC-SVG-20010904/DTD/svg10.dtd">
<svg version="1.0" xmlns="http://www.w3.org/2000/svg"
 width="1280.000000pt" height="1261.000000pt" viewBox="0 0 1280.000000 1261.000000"
 preserveAspectRatio="xMidYMid meet">
<metadata>
Created by potrace 1.15, written by Peter Selinger 2001-2017
</metadata>
<g transform="translate(0.000000,1261.000000) scale(0.100000,-0.100000)"
fill="#FFFFFF" stroke="none">
<path d="M5244 12592 c-123 -44 -224 -157 -390 -435 -150 -253 -190 -312 -262
-389 -156 -165 -255 -165 -737 -3 -333 111 -363 119 -480 119 -111 0 -171 -24
-237 -92 -87 -91 -129 -201 -182 -477 -67 -347 -93 -448 -138 -538 -28 -57
-86 -116 -140 -143 -91 -46 -153 -54 -493 -64 -345 -10 -435 -20 -533 -55
-112 -41 -169 -94 -209 -195 -14 -36 -17 -76 -17 -205 0 -137 5 -190 37 -375
45 -264 53 -372 38 -466 -31 -181 -126 -253 -546 -413 -116 -43 -235 -90 -265
-103 -148 -66 -273 -175 -304 -264 -47 -139 -3 -288 186 -620 175 -307 211
-396 212 -524 1 -73 -3 -92 -26 -135 -46 -88 -138 -185 -353 -370 -225 -194
-315 -291 -367 -394 -29 -58 -33 -74 -33 -146 0 -72 4 -88 33 -146 52 -103
142 -200 367 -394 469 -405 481 -470 180 -1006 -170 -304 -215 -415 -215 -535
0 -83 23 -144 78 -206 87 -97 181 -146 502 -268 432 -163 522 -232 552 -424
14 -93 3 -215 -44 -487 -27 -154 -32 -210 -32 -344 -1 -144 2 -166 22 -217 46
-114 151 -184 319 -213 54 -9 213 -19 413 -25 345 -10 406 -18 498 -64 51 -26
110 -85 136 -135 47 -90 70 -178 130 -492 77 -399 139 -530 286 -598 46 -21
69 -25 145 -25 117 0 148 8 480 119 481 162 580 162 732 1 77 -81 115 -137
267 -393 125 -209 209 -320 291 -381 113 -83 223 -91 361 -27 91 42 166 94
343 240 203 166 279 221 361 264 103 53 173 68 247 51 117 -26 216 -88 466
-293 248 -203 329 -256 446 -291 70 -21 123 -20 187 2 122 43 224 156 390 435
152 256 190 312 267 393 152 161 251 161 732 -1 333 -111 363 -119 480 -119
111 0 171 24 237 92 87 91 129 201 182 477 68 355 103 481 153 564 30 48 78
93 125 117 91 46 153 54 493 64 176 5 353 15 393 21 183 27 285 89 341 208 24
53 26 64 25 221 0 140 -5 193 -32 349 -47 272 -58 394 -44 487 30 192 121 262
552 424 321 122 415 171 502 268 55 62 78 123 78 206 0 120 -45 231 -215 535
-243 434 -258 542 -102 739 50 63 102 112 366 341 153 132 241 233 287 328 25
49 29 70 29 138 0 68 -4 89 -29 138 -46 95 -134 196 -287 328 -264 229 -316
278 -366 341 -84 106 -98 140 -97 238 1 128 37 217 212 524 190 334 234 480
186 620 -31 89 -156 198 -304 264 -30 13 -149 60 -265 104 -421 159 -515 230
-546 412 -15 93 -7 202 38 466 31 184 37 238 37 375 0 130 -3 169 -17 205 -40
101 -97 154 -209 195 -98 35 -188 45 -533 55 -340 10 -402 18 -493 64 -47 24
-95 69 -125 117 -50 83 -85 209 -153 564 -53 276 -95 386 -182 477 -67 70
-126 92 -242 91 -117 0 -154 -10 -490 -123 -465 -157 -567 -156 -722 8 -72 77
-112 136 -262 389 -125 209 -209 320 -291 381 -113 83 -223 91 -361 27 -91
-42 -166 -94 -343 -240 -203 -166 -279 -221 -361 -264 -221 -114 -324 -77
-741 264 -178 147 -252 198 -344 241 -97 45 -185 54 -261 26z"/>
</g>
</svg>
