<?xml version="1.0" ?><!DOCTYPE svg  PUBLIC '-//W3C//DTD SVG 1.1//EN'  'http://www.w3.org/Graphics/SVG/1.1/DTD/svg11.dtd'><svg enable-background="new 0 0 512 512" height="512px" id="Teeth_x5F_X-ray" version="1.1" viewBox="0 0 512 512" width="512px" xml:space="preserve" xmlns="http://www.w3.org/2000/svg" xmlns:xlink="http://www.w3.org/1999/xlink"><g><path d="M361.435,101.457h30c2.761,0,5-2.238,5-5s-2.239-5-5-5h-30c-2.761,0-5,2.238-5,5S358.674,101.457,361.435,101.457z"/><path d="M477,91.457h-55.565c-2.761,0-5,2.238-5,5s2.239,5,5,5H477c5.514,0,10,4.486,10,10v289.086c0,5.514-4.486,10-10,10H35   c-5.514,0-10-4.486-10-10V111.457c0-5.514,4.486-10,10-10h296.435c2.761,0,5-2.238,5-5s-2.239-5-5-5H35c-11.028,0-20,8.972-20,20   v289.086c0,11.028,8.972,20,20,20h442c11.027,0,20-8.972,20-20V111.457C497,100.429,488.027,91.457,477,91.457z"/><path d="M323.25,223.598c-2.152-5.719-5.335-10.74-9.458-14.626c-7.681-7.237-17.528-9.522-27.726-6.432l-14.689,4.452   c-10.203,3.096-20.551,3.095-30.755-0.001l-14.688-4.451c-10.199-3.09-20.046-0.806-27.726,6.432   c-4.123,3.886-7.306,8.907-9.458,14.626c-2.151-5.719-5.334-10.74-9.458-14.626c-7.68-7.237-17.528-9.522-27.726-6.432   l-14.689,4.452c-10.203,3.096-20.55,3.095-30.755-0.001l-14.688-4.451c-10.202-3.09-20.046-0.805-27.726,6.432   c-11.093,10.453-15.414,29.11-11.008,47.532l22.573,94.388c2.013,8.418,9.517,14.527,17.925,14.527   c5.433-0.027,10.017-4.334,10.436-9.804c0.969-12.646,3.883-27.496,7.607-38.753c4.924-14.889,9.345-17.932,10.259-17.932   s5.334,3.043,10.259,17.931c3.723,11.257,6.638,26.105,7.607,38.753c0.419,5.471,5.003,9.777,10.52,9.805   c8.325,0,15.828-6.109,17.841-14.527l21.022-87.904l21.022,87.904c2.013,8.418,9.517,14.527,17.925,14.527   c5.433-0.027,10.017-4.334,10.436-9.804c0.969-12.647,3.884-27.496,7.607-38.753c4.924-14.889,9.345-17.932,10.259-17.932   s5.334,3.043,10.259,17.931c3.724,11.257,6.638,26.106,7.606,38.754c0.42,5.47,5.006,9.776,10.521,9.804   c8.324,0,15.827-6.109,17.84-14.527l21.022-87.904l21.022,87.904c2.014,8.418,9.516,14.527,17.926,14.527   c5.433-0.027,10.017-4.334,10.436-9.804c0.969-12.647,3.884-27.496,7.607-38.753c4.924-14.889,9.345-17.932,10.259-17.932   s5.334,3.043,10.259,17.931c3.723,11.257,6.639,26.106,7.607,38.753c0.418,5.471,5.003,9.777,10.52,9.805   c8.324,0,15.828-6.109,17.842-14.527l22.572-94.388c4.405-18.422,0.084-37.079-11.008-47.532   c-7.68-7.236-17.525-9.522-27.727-6.432l-14.689,4.452c-10.203,3.096-20.549,3.095-30.754-0.001l-14.688-4.451   c-10.199-3.09-20.047-0.806-27.727,6.432C328.584,212.857,325.4,217.879,323.25,223.598z M180.576,254.178l-22.573,94.388   c-0.934,3.907-4.423,6.854-8.147,6.854c-0.257-0.001-0.494-0.262-0.518-0.568c-1.027-13.398-4.125-29.158-8.084-41.129   c-5.518-16.682-11.979-24.791-19.753-24.791s-14.235,8.109-19.753,24.791c-3.96,11.972-7.057,27.732-8.083,41.13   c-0.023,0.307-0.26,0.566-0.55,0.567c-3.692,0-7.181-2.946-8.115-6.854l-22.573-94.388c-3.532-14.77-0.26-30.012,8.141-37.929   c3.51-3.308,9.477-6.713,17.968-4.139l14.686,4.45c12.129,3.681,24.43,3.68,36.559,0.001l14.687-4.451   c8.493-2.574,14.458,0.831,17.969,4.139C180.836,224.166,184.107,239.408,180.576,254.178z M315.074,254.178l-22.572,94.388   c-0.936,3.907-4.424,6.854-8.147,6.854c-0.257-0.001-0.495-0.262-0.519-0.568c-1.025-13.398-4.123-29.158-8.084-41.129   c-5.518-16.682-11.979-24.791-19.752-24.791c-7.774,0-14.235,8.109-19.753,24.791c-3.96,11.972-7.058,27.731-8.084,41.13   c-0.023,0.307-0.26,0.566-0.549,0.567c-3.692,0-7.181-2.946-8.115-6.854l-22.573-94.388c-3.532-14.77-0.261-30.012,8.141-37.929   c3.51-3.308,9.474-6.713,17.968-4.139l14.686,4.45c12.129,3.682,24.43,3.682,36.558,0.001l14.687-4.451   c8.492-2.573,14.459,0.831,17.969,4.139C315.335,224.166,318.605,239.408,315.074,254.178z M357.533,212.11l14.686,4.45   c12.13,3.681,24.43,3.68,36.559,0.001l14.688-4.451c8.49-2.573,14.457,0.831,17.968,4.139c8.401,7.917,11.673,23.159,8.141,37.929   L427,348.565c-0.934,3.907-4.423,6.854-8.146,6.854c-0.258-0.001-0.494-0.262-0.518-0.568c-1.027-13.398-4.125-29.158-8.084-41.129   c-5.518-16.682-11.979-24.791-19.753-24.791s-14.235,8.109-19.753,24.791c-3.96,11.972-7.058,27.731-8.084,41.13   c-0.023,0.307-0.26,0.566-0.549,0.567c-3.693,0-7.182-2.946-8.115-6.854l-22.574-94.388c-3.531-14.77-0.26-30.012,8.141-37.929   C343.074,212.941,349.041,209.536,357.533,212.11z"/><path d="M93.002,153.22h89c2.761,0,5-2.238,5-5s-2.239-5-5-5h-89c-2.761,0-5,2.238-5,5S90.241,153.22,93.002,153.22z"/><path d="M93.002,171.22h89c2.761,0,5-2.238,5-5s-2.239-5-5-5h-89c-2.761,0-5,2.238-5,5S90.241,171.22,93.002,171.22z"/><path d="M75,172.22c2.761,0,5-2.238,5-5v-19c0-2.762-2.239-5-5-5H56c-2.761,0-5,2.238-5,5v19c0,2.762,2.239,5,5,5H75z M61,153.22h9   v9h-9V153.22z"/></g></svg>